/* XPM */
static char *_6f65d881cea4675abbe644e0aa2c5d1VyVuhTdIoEifAXNx[] = {
/* columns rows colors chars-per-pixel */
"32 32 14 1 ",
"  c black",
". c gray50",
"X c #B97A57",
"o c #3F48CC",
"O c #7092BE",
"+ c #00A2E8",
"@ c #EFE4B0",
"# c #C8BFE7",
"$ c #C3C3C3",
"% c #C0CADB",
"& c #C0CBDB",
"* c #C0CBDC",
"= c #C0CBDD",
"- c #C0CCDD",
/* pixels */
"********************************",
"********************************",
"********************************",
"********   *********************",
"******* +++      ***************",
"****** +oo+ $.*.# **************",
"****** o   $$.#.$. *** *********",
"****** o  $ $$$$$# ** # ********",
"******* * .$      *** # ********",
"********* $.@@@@@ *** $ ********",
"********* .*@@X@X *** $ ********",
"********* $$@@X@X *** $ ********",
"********** $$@@@@ *** # ********",
"********     $$##   * $ ********",
"******* .$$$ .... $#  $ ********",
"******* ..$ $$$$$ .$  $  *******",
"********    .$$$$$   OOO *******",
"******** o ...$$$$ o  X  *******",
"*******      ..$$$ oo X ****-***",
"******* o+oo .. $$    X ********",
"******* o+oo   $  *** O ********",
"******* o+oo .$$# **** **-******",
"******* ++++ .$$# **************",
"******* o+oo .$$# **************",
"******** +o o    o %-%-&********",
"*********  . oooo  -%-%&********",
"********* ..#    .# -%&&********",
"********* .$# * .$# %-&&********",
"********* .$ ** .$ -%%%&***%*%%%",
"**.***** .$ *** .$ %%%%%X*****%%",
"*.*.*$$* .$$ *- .$$ %%%.-O*$$*%%",
"****$*$*******%-%-%-%%%%%%**$***"
};
