/* XPM */
static char *_05a1d730dfa4c94be0c228abd69354c9AW2OuaxT5BGNRHN[] = {
/* columns rows colors chars-per-pixel */
"32 32 10 1 ",
"  c black",
". c #FF7F27",
"X c #B97A57",
"o c #FFC90E",
"O c #FFF200",
"+ c #C0CADB",
"@ c #C1CCDA",
"# c #C0CBDC",
"$ c #C0CCDC",
"% c white",
/* pixels */
"+###############################",
"################################",
"################################",
"################################",
"################################",
"################################",
"################################",
"################################",
"########   #####################",
"####### %%o  ###################",
"###### %ooooO ##################",
"##### %oo oooO           #######",
"##### %o # .oooooOOoooo%% ######",
"##### oo # .ooo..oooo oo. ######",
"##### ooo Xooo     X # oX ######",
"###### oooooo #### X # XX ######",
"####### XXX  ###### ###  #######",
"########   #####################",
"################################",
"################################",
"################################",
"################################",
"################################",
"####+#@#########################",
"################################",
"################################",
"################################",
"################################",
"################################",
"################################",
"##########################$#####",
"##########+########+############"
};
