/* XPM */
static char *_690edf51f4d4d20f1bc056c93e597668ZyfvUvR49jD02TR[] = {
/* columns rows colors chars-per-pixel */
"32 32 6 1 ",
"  c black",
". c gray50",
"X c #FF7F27",
"o c #B97A57",
"O c #C3C3C3",
"+ c #C0CBDC",
/* pixels */
"++++++++++++++++++++++++++++++++",
"++++++++++++++++++++++++++++++++",
"++++++++++++++++++++++++++++++++",
"++++++ +++++ +++++ +++++ +++++++",
"+++++ . +++ . +++ . +++ . ++++++",
"++++ ... + ... + ... + ... +++++",
"  +++ . +++ . +++ . +++ . +++   ",
"XX ++ . +++ . +++ . +++ . ++ XXX",
"oo ++ . +O+ . +++ . +++ . ++ ooo",
"XoX + .     .     .     . + XXoX",
"ooo + ................... + oooo",
"XXX + .     .     .     . + XoXX",
"ooo + . +++ . +++ . +++ . + oooo",
"XoX + .     .     .     . + XXoX",
"ooo + ................... + oooo",
"XXX + .     .     .     . + XoXX",
"ooo + . +++ . +++ . +++ . + oooo",
"XoX + .     .     .     . + XXoX",
"ooo + ................... + oooo",
"XXX + .     .     .     . + XoXX",
"ooo + . +++ . +++ . +++ . + oooo",
"XoX + .     .     .     . + XXoX",
"ooo + ................... + oooo",
"XXX + .     .     .     . + XoXX",
"ooo + . +++ . +++ . +++ . + oooo",
"XoX + .     .     .     . + XXoX",
"ooo + ................... + oooo",
"XXX + .     .     .     . + XoXX",
"XXX + . +++ . +++ . +++ . + XoXX",
"                                ",
"++++++++++++++++++++++++++++++++",
"++++++++++++++++++++++++++++++++"
};
