/* XPM */
static char *_6fc5671fa8248d8adde6d42701dbf1bcGtROJLoP4y1KgDs[] = {
/* columns rows colors chars-per-pixel */
"32 32 6 1 ",
"  c gray50",
". c #C0CADB",
"X c #C0CBDB",
"o c #C0CBDC",
"O c #C0CCDD",
"+ c #C1CCDD",
/* pixels */
"oooooooooooooooooooooooooooooooo",
"oooooooooooooooooooooooooooooooo",
"oooooooooooooooooooooooooooooooo",
"oooooooooooooooooooooooooooooooo",
"oooooooooooooooooooooooooooooooo",
"oooooooooooooooooooooo o ooooooo",
"ooooooooooooooooooooooo oooooooo",
"oooooooooooooooooooooooooooooooo",
"oooooooooooooooooooooooooooooooo",
"oooooooooooooooooooooooooooooooo",
"oooooooooooooooooooooooooooooooo",
"oooooooooooooooooooooooooooooooo",
"oooooooooooooooooooooooooooooooo",
"oooooooooooo ooooooooooooooooooo",
"ooooooooooo o oooooooooooooooooo",
"oooooooooooooooooooooooooooooooo",
"oooooooooooooooooooooooooooooooo",
"oooooooooooooooooooooooooooooooo",
"oooooooooooooooooooooo o ooooooo",
"ooooooooooooooooooooooo oooooooo",
"oooooO+o+O+oOooooooooooooooooooo",
"ooooooXooooooooooooooooooooooooo",
"oooooooooooooooooooooooooooooooo",
"oooooooooooooooo..oo..oooooooooo",
"oooooooooooooooooooooooooooooooo",
"oooooooooooooo++++o+O+oooooooooo",
"oooooo oooooooooXoooo oooooooooo",
"ooooo o oooooooooooo o ooooooooo",
"oooooooooooooooooooooooooooX....",
"oooooooooooooooooooooooooooo....",
"oooooooooooooooooooooooooooo+...",
"ooooooooooooooooooooooooooX+X+.+"
};
