/* XPM */
static char *_0462464c6874ae4b00ce131bb0a1de0IdZEJUuuBFoBHQ5K[] = {
/* columns rows colors chars-per-pixel */
"32 32 128 2 ",
"   c #1C300A",
".  c #1C2B10",
"X  c #22380E",
"o  c #263D10",
"O  c #2B3D1C",
"+  c #222428",
"@  c #32363B",
"#  c #2C4414",
"$  c #2E4915",
"%  c #2F4A16",
"&  c #304B15",
"*  c #334E17",
"=  c #384D17",
"-  c #314719",
";  c #31481B",
":  c #334F19",
">  c #355218",
",  c #375519",
"<  c #37561A",
"1  c #38571A",
"2  c #3B571A",
"3  c #3D5619",
"4  c #3E572C",
"5  c #594D14",
"6  c #435116",
"7  c #4A5417",
"8  c #425519",
"9  c #485518",
"0  c #525216",
"q  c #595015",
"w  c #595115",
"e  c #7E470E",
"r  c #654E13",
"t  c #614F14",
"y  c #6D4C12",
"u  c #784A10",
"i  c #4A562D",
"p  c #425932",
"a  c #425934",
"s  c #45573C",
"d  c #3C4341",
"f  c #3E4543",
"g  c #3D4147",
"h  c #42464D",
"j  c #505E4F",
"k  c #484D54",
"l  c #4C5750",
"z  c #4B5057",
"x  c #4C5158",
"c  c #536447",
"v  c #556A50",
"b  c #5A6E55",
"n  c #5F715D",
"m  c #555D60",
"M  c #595F67",
"N  c #5C6368",
"B  c #606C67",
"V  c #60666F",
"C  c #637068",
"Z  c #687869",
"A  c #616770",
"S  c #666B75",
"D  c #676E77",
"F  c #6A7278",
"G  c #6D737E",
"H  c #717F7A",
"J  c #8E450C",
"K  c #758779",
"L  c #8A8275",
"P  c #757C86",
"I  c #767D88",
"U  c #777F89",
"Y  c #78808B",
"T  c #79818C",
"R  c #7E8590",
"E  c #828A96",
"W  c #858D99",
"Q  c #889594",
"!  c #969995",
"~  c #8D96A3",
"^  c #8E97A2",
"/  c #8E97A3",
"(  c #929AA7",
")  c #939CA9",
"_  c #949CAA",
"`  c #949DAA",
"'  c #99A5AB",
"]  c #9DA6B4",
"[  c #9FA9B7",
"{  c #A0A9B7",
"}  c #A1AAB9",
"|  c #A2ACBA",
" . c #A6AFBE",
".. c #A2B0B6",
"X. c #A7B2BC",
"o. c #A7B0BE",
"O. c #A7B4BD",
"+. c #AAB7BF",
"@. c #A9B3C2",
"#. c #AAB4C3",
"$. c #ABB5C5",
"%. c #ADB7C4",
"&. c #ADB7C7",
"*. c #AEBBC5",
"=. c #AFB9C8",
"-. c #BDBCC7",
";. c #B1BBCB",
":. c #B2BECA",
">. c #B3BDCD",
",. c #B3BECE",
"<. c #B5BFCF",
"1. c #B5C1CE",
"2. c #B7C2D2",
"3. c #B8C2D3",
"4. c #B8C3D3",
"5. c #B9C4D3",
"6. c #B9C3D4",
"7. c #BAC6D6",
"8. c #BCC7D7",
"9. c #BCC8D7",
"0. c #BCC7D8",
"q. c #BEC9DA",
"w. c #BFCADB",
"e. c #C1C9DA",
"r. c #C0CBDB",
"t. c #C0CBDC",
"y. c #C0CCDC",
"u. c #C0CCDD",
/* pixels */
"t.t.t.t.t.t.t.t.t.t.t.t.t.t.r.r.q.:.+.+.:.9.w.y.y.y.t.t.t.t.t.t.",
"t.t.t.t.t.t.t.t.t.t.t.t.t.t.r.4.Q Z v b K ) 1.w.t.r.t.t.t.t.t.t.",
"t.t.t.t.t.t.t.t.t.t.t.t.t.t.&.C - = > > = i L -.t.t.t.t.t.t.t.t.",
"t.t.t.t.t.t.t.t.t.t.t.t.t.;.B # 6 q 3 2 7 e y ! t.t.t.t.t.t.t.t.",
"t.t.t.t.t.t.t.t.t.t.t.t.9./ O , 0 J r 2 u J 5 c 5.t.t.t.t.t.t.t.",
"t.t.t.t.t.t.t.t.t.t.t.t.1.F o 2 8 y J 9 t q 3 p O.t.t.t.t.t.t.t.",
"t.t.t.t.t.t.t.t.u.u.q.r.$.m X 2 2 8 q 7 2 3 2 4 ..t.t.t.t.t.t.t.",
"t.t.t.t.t.t.t.t.u.u.u.q.&.N X , , 1 1 1 1 1 , p *.t.t.t.t.t.t.t.",
"t.t.t.t.t.t.t.t.t.t.t.t.2.Y . % , 1 1 1 , 2 * n q.r.t.t.t.t.t.t.",
"t.t.t.t.t.t.t.t.t.t.t.t.q.] f   % , 1 , > : a { t.t.t.t.t.t.t.t.",
"t.t.t.t.t.t.t.t.t.t.t.t.t.6./ d   # % % ; s ' t.t.t.t.t.t.t.t.t.",
"t.t.t.t.t.t.t.t.t.t.t.t.t.t.4.] K l @ j K X.t.t.t.t.t.t.t.t.t.t.",
"t.t.t.t.t.t.t.t.t.t.t.t.t.t.t.q.<.[ h ,.0.t.t.t.t.t.t.t.t.t.t.t.",
"t.t.t.t.t.t.t.t.t.t.t.t.t.t.t.t.w.,.x w.t.t.t.t.t.t.t.t.t.t.t.t.",
"t.t.t.t.t.t.t.t.t.t.t.t.t.t.t.t.u.,.x w.t.t.t.t.t.t.t.t.t.t.t.t.",
"t.t.t.t.t.t.t.t.t.t.@.T V V V V A M + A V V A A V A T #.t.t.t.t.",
"t.t.t.t.t.t.t.t.t.t.2.@.[ [ { { [ _ g } ] } } } } [ @.2.t.t.t.t.",
"t.t.t.t.t.t.t.t.t.t.t.t.t.t.t.t.w.,.x w.t.t.0.t.t.t.t.t.t.t.t.t.",
"t.t.t.t.t.t.t.t.t.t.t.t.t.t.t.t.w.>.x w.t.t.t.t.t.t.t.t.t.t.t.t.",
"t.t.t.t.t.t.t.t.t.t.t.t.t.t.t.t.t.,.x t.t.t.t.t.t.t.t.t.t.t.t.t.",
"t.t.t.t.t.t.t.t.t.t.t.t.t.t.t.t.t.,.x q.w.w.t.t.t.t.t.t.t.t.t.t.",
"t.t.t.t.t.t.t.t.t.t.t.t.t.t.t.t.t.>.x 0.t.t.t.t.t.t.t.t.t.t.t.t.",
"t.t.t.t.t.t.t.t.t.t.t.t.t.t.t.,.( P @ } t.t.t.t.t.t.t.t.t.t.t.t.",
"t.t.t.t.t.t.t.t.t.t.t.t.t.t.4.P S R h P @.q.t.t.t.t.t.t.t.t.t.t.",
"t.t.t.t.t.t.t.t.t.t.t.t.t.0.( D ( 7.} I E =.t.r.t.t.t.t.t.t.t.t.",
"t.t.t.t.t.t.t.t.t.t.t.t.t. .T _ 7.t.t.#.I _ 0.t.t.t.t.t.t.t.t.t.",
"t.t.t.t.t.t.t.t.t.t.t.t.0.W E ,.t.t.t.w.~ E &.r.t.t.t.t.t.t.t.t.",
"t.t.t.t.t.t.t.t.t.t.t.t.@.U ` t.t.t.t.q.=.U ( t.t.t.t.t.t.t.t.t.",
"t.t.t.t.t.t.t.t.t.t.t.t.>.} ,.t.t.t.t.t.0.} @.0.t.t.q.e.t.r.r.e.",
"t.t.t.t.t.t.t.t.t.t.t.t.q.t.t.t.t.t.t.t.t.t.q.t.t.t.t.t.r.r.r.e.",
"t.t.t.t.t.t.t.t.t.t.t.t.q.t.t.t.t.t.t.t.t.t.t.t.t.t.t.t.t.t.t.t.",
"t.t.t.t.t.t.t.t.t.t.t.t.t.t.t.t.t.t.t.t.t.t.t.t.t.t.t.t.t.t.t.t."
};
